Coordinates
version=1
nRows=8
nColumns=40
inDegrees=yes

Units are S.I. units (second, meters, Newtons, ...)
Angles are in degrees.

endheader
time	pelvis_tilt	pelvis_list	pelvis_rotation	pelvis_tx	pelvis_ty	pelvis_tz	hip_flexion_r	hip_adduction_r	hip_rotation_r	knee_angle_r	knee_angle_r_beta	ankle_angle_r	subtalar_angle_r	mtp_angle_r	hip_flexion_l	hip_adduction_l	hip_rotation_l	knee_angle_l	knee_angle_l_beta	ankle_angle_l	subtalar_angle_l	mtp_angle_l	lumbar_extension	lumbar_bending	lumbar_rotation	arm_flex_r	arm_add_r	arm_rot_r	elbow_flex_r	pro_sup_r	wrist_flex_r	wrist_dev_r	arm_flex_l	arm_add_l	arm_rot_l	elbow_flex_l	pro_sup_l	wrist_flex_l	wrist_dev_l
     44.91128571	     -1.33615361	     -4.42505811	      5.40517212	      1.02025815	      0.93453397	      0.50352212	      5.57795875	      3.78094488	    -16.50886182	     13.55932778	     13.55932778	     11.58954385	     -0.49379861	     -4.92621423	     36.81624383	    -12.03281836	      1.39997133	     55.47065162	     55.47065162	      3.05265122	    -18.27982314	      8.70758104	     -9.90893931	      4.84258706	      2.62107783	     38.02841305	    -18.69290012	     -0.28691727	     80.68117770	     44.58541946	      0.00000000	      0.00000000	     -7.28947910	     -8.89473256	     -7.47580390	     26.42040066	     46.01313331	      0.00000000	      0.00000000
     44.92507143	     -1.64336288	     -4.55024932	      5.74843348	      1.01911006	      0.93410733	      0.50355134	      5.42094809	      3.97016206	    -16.83344853	     13.19094086	     13.19094086	     11.64283279	     -0.44721983	     -4.96226695	     37.11275364	    -11.89167697	      1.04613117	     51.62196892	     51.62196892	      3.56048092	    -17.89785956	      9.17185641	     -9.64472511	      5.06528536	      2.76874693	     39.28991577	    -18.87286940	     -0.43080620	     81.39692837	     44.57489241	      0.00000000	      0.00000000	     -7.39097500	     -8.57791657	     -7.43520573	     26.45456935	     46.00467123	      0.00000000	      0.00000000
     44.93885714	     -1.62210410	     -4.45343335	      6.09691734	      1.01837352	      0.93429248	      0.50329214	      4.56125831	      4.00727049	    -17.22768336	     12.26483439	     12.26483439	     11.66725308	      0.21417836	     -5.10673839	     36.69999756	    -11.41581884	      0.74098222	     47.44037685	     47.44037685	      3.91432447	    -17.54976851	      9.65000298	     -9.85764765	      5.06034675	      2.65196228	     40.28634912	    -18.80805440	     -0.38569117	     82.90263930	     44.53831132	      0.00000000	      0.00000000	     -7.57901870	     -8.39821100	     -7.39695263	     26.58439332	     45.99695919	      0.00000000	      0.00000000
     44.95264286	     -1.76866708	     -4.53378175	      6.44921059	      1.01755191	      0.93386950	      0.50287669	      4.04256375	      4.14092242	    -17.93553821	     11.60240112	     11.60240112	     11.62648932	      1.03885519	     -5.71468584	     36.45484446	    -11.08473584	      0.55052675	     43.30548042	     43.30548042	      4.00081792	    -16.69248311	      9.36853214	     -9.83814929	      5.25799028	      2.87462592	     40.98750146	    -19.22855931	     -0.43088198	     84.61366738	     44.51804667	      0.00000000	      0.00000000	     -7.66647389	     -8.18200079	     -7.28306059	     27.07833800	     45.98199822	      0.00000000	      0.00000000
     44.96642857	     -1.87622277	     -4.59873275	      6.75624802	      1.01679815	      0.93337594	      0.50242774	      3.62124490	      4.27521164	    -18.19718407	     11.21285230	     11.21285230	     11.75537861	      1.16995004	     -5.87726097	     36.07455784	    -10.73715634	      0.39655415	     39.30732473	     39.30732473	      4.28768159	    -15.44247218	      9.60292988	     -9.82261522	      5.40641196	      2.93526298	     41.89816484	    -19.30073503	     -0.53408738	     85.14142204	     44.51768665	      0.00000000	      0.00000000	     -7.63484409	     -7.99183577	     -7.18990191	     27.17454395	     45.96911127	      0.00000000	      0.00000000
     44.98021429	     -1.98603216	     -4.70234427	      7.04991226	      1.01617993	      0.93275325	      0.50184058	      3.19051914	      4.44238089	    -18.49450513	     10.80868661	     10.80868661	     11.89699604	      1.41279938	     -6.05347944	     35.65924520	    -10.43063372	      0.27249912	     35.57327519	     35.57327519	      4.60049951	    -13.91797932	      9.83448248	     -9.77385441	      5.59081235	      2.97229958	     42.68526104	    -19.36700669	     -0.61286518	     85.57884606	     44.51708311	      0.00000000	      0.00000000	     -7.57220245	     -7.81622759	     -7.10522861	     27.31107310	     45.95736390	      0.00000000	      0.00000000
     44.99400000	     -2.17040921	     -5.09236971	      7.37856027	      1.01555665	      0.93167764	      0.50115377	      3.02474565	      4.86661440	    -18.83576795	     10.68509279	     10.68509279	     12.07747370	      1.43152039	     -6.20833881	     35.52289254	    -10.32546193	      0.50064504	     32.40617593	     32.40617593	      4.91528742	    -12.52761657	     10.14467733	     -9.59597913	      6.12704980	      3.02709511	     43.38102770	    -19.48814141	     -0.71436914	     85.81628648	     44.51819087	      0.00000000	      0.00000000	     -7.44593569	     -7.59590415	     -7.05391933	     27.43911507	     45.95102756	      0.00000000	      0.00000000
     45.00778571	     -2.09879483	     -4.93333533	      7.56663834	      1.01551800	      0.93141745	      0.50034587	      2.23219284	      4.79309482	    -19.04094606	     10.10979484	     10.10979484	     12.27822258	      1.90239278	     -6.37637874	     34.68169543	     -9.93142759	     -0.09940634	     29.31216337	     29.31216337	      5.26005842	    -10.73478852	     10.42493610	     -9.72676724	      5.95978024	      3.04681490	     43.79222640	    -19.43624613	     -0.76188356	     86.04146695	     44.52136801	      0.00000000	      0.00000000	     -7.31775190	     -7.53155313	     -6.96749857	     27.64792824	     45.93962183	      0.00000000	      0.00000000
